<svg width="24" height="27" viewBox="0 0 24 27" fill="none" xmlns="http://www.w3.org/2000/svg">
<path fill-rule="evenodd" clip-rule="evenodd" d="M1.56267 1.5822C-1.58946e-07 3.16305 0 5.70915 0 10.8V16.2C0 21.2908 -1.58946e-07 23.8369 1.56267 25.4178C3.12533 26.9986 5.63867 27 10.6667 27H13.3333C18.3613 27 20.876 27 22.4373 25.4178C23.9987 23.8356 24 21.2908 24 16.2V10.8C24 5.70915 24 3.16305 22.4373 1.5822C20.8747 0.0013499 18.3613 0 13.3333 0H10.6667C5.63867 0 3.124 -1.60933e-07 1.56267 1.5822ZM6.66667 9.7875C6.40145 9.7875 6.1471 9.89417 5.95956 10.0841C5.77202 10.2739 5.66667 10.5315 5.66667 10.8C5.66667 11.0685 5.77202 11.3261 5.95956 11.5159C6.1471 11.7058 6.40145 11.8125 6.66667 11.8125H17.3333C17.5986 11.8125 17.8529 11.7058 18.0404 11.5159C18.228 11.3261 18.3333 11.0685 18.3333 10.8C18.3333 10.5315 18.228 10.2739 18.0404 10.0841C17.8529 9.89417 17.5986 9.7875 17.3333 9.7875H6.66667ZM6.66667 15.1875C6.40145 15.1875 6.1471 15.2942 5.95956 15.4841C5.77202 15.6739 5.66667 15.9315 5.66667 16.2C5.66667 16.4685 5.77202 16.7261 5.95956 16.9159C6.1471 17.1058 6.40145 17.2125 6.66667 17.2125H13.3333C13.5985 17.2125 13.8529 17.1058 14.0404 16.9159C14.228 16.7261 14.3333 16.4685 14.3333 16.2C14.3333 15.9315 14.228 15.6739 14.0404 15.4841C13.8529 15.2942 13.5985 15.1875 13.3333 15.1875H6.66667Z" fill="#F1EADA"/>
</svg>
