<svg width="31" height="31" viewBox="0 0 31 31" fill="none" xmlns="http://www.w3.org/2000/svg">
<path d="M29.45 18.6C29.0389 18.6 28.6447 18.7633 28.354 19.054C28.0633 19.3447 27.9 19.7389 27.9 20.15V26.35C27.9 26.7611 27.7367 27.1553 27.446 27.446C27.1553 27.7367 26.7611 27.9 26.35 27.9H4.65C4.23891 27.9 3.84467 27.7367 3.55398 27.446C3.2633 27.1553 3.1 26.7611 3.1 26.35V20.15C3.1 19.7389 2.9367 19.3447 2.64602 19.054C2.35533 18.7633 1.96109 18.6 1.55 18.6C1.13891 18.6 0.744666 18.7633 0.453984 19.054C0.163303 19.3447 0 19.7389 0 20.15V26.35C0 27.5833 0.489909 28.766 1.36195 29.638C2.234 30.5101 3.41674 31 4.65 31H26.35C27.5833 31 28.766 30.5101 29.638 29.638C30.5101 28.766 31 27.5833 31 26.35V20.15C31 19.7389 30.8367 19.3447 30.546 19.054C30.2553 18.7633 29.8611 18.6 29.45 18.6ZM14.3995 21.2505C14.5469 21.3916 14.7207 21.5022 14.911 21.576C15.0965 21.658 15.2972 21.7004 15.5 21.7004C15.7028 21.7004 15.9035 21.658 16.089 21.576C16.2793 21.5022 16.4531 21.3916 16.6005 21.2505L22.8005 15.0505C23.0924 14.7586 23.2563 14.3628 23.2563 13.95C23.2563 13.5372 23.0924 13.1414 22.8005 12.8495C22.5086 12.5576 22.1128 12.3937 21.7 12.3937C21.2872 12.3937 20.8914 12.5576 20.5995 12.8495L17.05 16.4145V1.55C17.05 1.13891 16.8867 0.744666 16.596 0.453984C16.3053 0.163303 15.9111 0 15.5 0C15.0889 0 14.6947 0.163303 14.404 0.453984C14.1133 0.744666 13.95 1.13891 13.95 1.55V16.4145L10.4005 12.8495C10.256 12.705 10.0844 12.5903 9.89559 12.5121C9.70676 12.4339 9.50438 12.3937 9.3 12.3937C9.09562 12.3937 8.89324 12.4339 8.70441 12.5121C8.51559 12.5903 8.34402 12.705 8.1995 12.8495C8.05498 12.994 7.94034 13.1656 7.86213 13.3544C7.78391 13.5432 7.74366 13.7456 7.74366 13.95C7.74366 14.1544 7.78391 14.3568 7.86213 14.5456C7.94034 14.7344 8.05498 14.906 8.1995 15.0505L14.3995 21.2505Z" fill="#584738"/>
</svg>
