<svg width="20" height="20" viewBox="0 0 20 20" fill="none" xmlns="http://www.w3.org/2000/svg">
<path d="M17.778 10C17.778 7.93715 16.9585 5.95878 15.4999 4.50012C14.0412 3.04147 12.0629 2.222 10 2.222C7.93715 2.222 5.95878 3.04147 4.50012 4.50012C3.04147 5.95878 2.222 7.93715 2.222 10C2.222 12.0629 3.04147 14.0412 4.50012 15.4999C5.95878 16.9585 7.93715 17.778 10 17.778C12.0629 17.778 14.0412 16.9585 15.4999 15.4999C16.9585 14.0412 17.778 12.0629 17.778 10ZM12.548 7.548C12.6511 7.44491 12.7735 7.36314 12.9082 7.30735C13.0429 7.25156 13.1872 7.22284 13.333 7.22284C13.4788 7.22284 13.6231 7.25156 13.7578 7.30735C13.8925 7.36314 14.0149 7.44491 14.118 7.548C14.2211 7.65109 14.3029 7.77347 14.3587 7.90816C14.4144 8.04285 14.4432 8.18721 14.4432 8.333C14.4432 8.47879 14.4144 8.62315 14.3587 8.75784C14.3029 8.89253 14.2211 9.01491 14.118 9.118L10.786 12.452C10.6829 12.5554 10.5604 12.6375 10.4255 12.6934C10.2906 12.7494 10.146 12.7782 10 12.7782C9.85397 12.7782 9.70937 12.7494 9.5745 12.6934C9.43962 12.6375 9.31711 12.5554 9.214 12.452L5.881 9.12L5.805 9.035C5.62964 8.82199 5.5399 8.5513 5.55327 8.27572C5.56664 8.00013 5.68217 7.73941 5.87733 7.54437C6.07248 7.34934 6.33329 7.23398 6.60888 7.22078C6.88447 7.20759 7.1551 7.2975 7.368 7.473L7.452 7.549L10 10.095L12.548 7.548ZM20 10C20 15.523 15.523 20 10 20C4.477 20 0 15.523 0 10C0 4.477 4.477 0 10 0C15.523 0 20 4.477 20 10Z" fill="#584738"/>
</svg>
