<svg width="20" height="17" viewBox="0 0 20 17" fill="none" xmlns="http://www.w3.org/2000/svg">
<path d="M11 5H1C0.4 5 0 5.4 0 6C0 6.6 0.4 7 1 7H11C11.6 7 12 6.6 12 6C12 5.4 11.6 5 11 5ZM19 0H1C0.4 0 0 0.4 0 1C0 1.6 0.4 2 1 2H19C19.6 2 20 1.6 20 1C20 0.4 19.6 0 19 0Z" fill="#584738"/>
<path d="M11 15H1C0.4 15 0 15.4 0 16C0 16.6 0.4 17 1 17H11C11.6 17 12 16.6 12 16C12 15.4 11.6 15 11 15ZM19 10H1C0.4 10 0 10.4 0 11C0 11.6 0.4 12 1 12H19C19.6 12 20 11.6 20 11C20 10.4 19.6 10 19 10Z" fill="#584738"/>
</svg>
