<svg width="22" height="21" viewBox="0 0 22 21" fill="none" xmlns="http://www.w3.org/2000/svg">
<path d="M9.63867 1.69092C9.93802 0.76961 11.2417 0.769605 11.541 1.69092L12.6699 5.16553C13.0716 6.40122 14.2231 7.23761 15.5225 7.23779H19.1758C20.1445 7.23779 20.5474 8.47796 19.7637 9.04736L16.8086 11.1938C15.7571 11.9578 15.3171 13.3123 15.7188 14.5483L16.8477 18.0229C17.1465 18.944 16.0922 19.7094 15.3086 19.1401L12.3535 16.9937C11.3021 16.2297 9.87763 16.2297 8.82617 16.9937L5.87109 19.1401C5.08752 19.7094 4.03321 18.944 4.33203 18.0229L5.46094 14.5483C5.86256 13.3123 5.42256 11.9578 4.37109 11.1938L1.41602 9.04736C0.632304 8.47796 1.03518 7.23779 2.00391 7.23779H5.65723C6.95658 7.23761 8.10806 6.40122 8.50977 5.16553L9.63867 1.69092Z" fill="#584738" stroke="#584738" stroke-width="2"/>
</svg>
