<svg width="19" height="16" viewBox="0 0 19 16" fill="none" xmlns="http://www.w3.org/2000/svg">
<path d="M5.5 3H1.5C1.08334 3 0.729336 2.85433 0.438002 2.563C0.146669 2.27167 0.000668939 1.91733 2.27272e-06 1.5C-0.000664394 1.08267 0.145336 0.728667 0.438002 0.438C0.730669 0.147334 1.08467 0.00133333 1.5 0H12.5C12.9167 0 13.271 0.146 13.563 0.438C13.855 0.73 14.0007 1.084 14 1.5C13.9993 1.916 13.8537 2.27033 13.563 2.563C13.2723 2.85567 12.918 3.00133 12.5 3H8.5V14.5C8.5 14.9167 8.35433 15.271 8.063 15.563C7.77167 15.855 7.41734 16.0007 7 16C6.58267 15.9993 6.22867 15.8537 5.938 15.563C5.64734 15.2723 5.50134 14.918 5.5 14.5V3Z" fill="#584738"/>
<path d="M14.1429 8.6875H11.8571C11.619 8.6875 11.4168 8.60556 11.2503 8.44169C11.0838 8.27781 11.0004 8.0785 11 7.84375C10.9996 7.609 11.083 7.40988 11.2503 7.24638C11.4175 7.08288 11.6198 7.00075 11.8571 7H18.1429C18.381 7 18.5834 7.08213 18.7503 7.24638C18.9171 7.41063 19.0004 7.60975 19 7.84375C18.9996 8.07775 18.9164 8.27706 18.7503 8.44169C18.5842 8.60631 18.3817 8.68825 18.1429 8.6875H15.8571V15.1562C15.8571 15.3906 15.7739 15.5899 15.6074 15.7542C15.441 15.9184 15.2385 16.0004 15 16C14.7615 15.9996 14.5592 15.9177 14.3931 15.7542C14.227 15.5907 14.1436 15.3914 14.1429 15.1562V8.6875Z" fill="#584738"/>
</svg>
