<svg width="18" height="17" viewBox="0 0 18 17" fill="none" xmlns="http://www.w3.org/2000/svg">
<path d="M2.25 17C1.63125 17 1.10175 16.7864 0.661499 16.3593C0.22125 15.9322 0.000749999 15.4181 0 14.817V12.634C0 12.3248 0.108 12.0657 0.324 11.8569C0.54 11.6481 0.806999 11.5433 1.125 11.5425C1.443 11.5418 1.71037 11.6466 1.92712 11.8569C2.14387 12.0672 2.2515 12.3262 2.25 12.634V14.817H15.75V12.634C15.75 12.3248 15.858 12.0657 16.074 11.8569C16.29 11.6481 16.557 11.5433 16.875 11.5425C17.193 11.5418 17.4604 11.6466 17.6771 11.8569C17.8939 12.0672 18.0015 12.3262 18 12.634V14.817C18 15.4173 17.7799 15.9314 17.3396 16.3593C16.8994 16.7872 16.3695 17.0007 15.75 17H2.25ZM7.87499 3.73838L5.76562 5.78492C5.54062 6.00322 5.27362 6.108 4.96462 6.09927C4.65562 6.09054 4.38825 5.97666 4.1625 5.75763C3.95625 5.53934 3.84825 5.28466 3.8385 4.99359C3.82875 4.70253 3.93675 4.44784 4.1625 4.22955L8.21249 0.300177C8.32499 0.191027 8.44687 0.113895 8.57812 0.0687805C8.70937 0.0236655 8.84999 0.000744453 8.99999 1.67924e-05C9.14999 -0.000710869 9.29062 0.0222102 9.42187 0.0687805C9.55312 0.115351 9.67499 0.192483 9.78749 0.300177L13.8375 4.22955C14.0625 4.44784 14.1705 4.70253 14.1615 4.99359C14.1525 5.28466 14.0445 5.53934 13.8375 5.75763C13.6125 5.97593 13.3455 6.08981 13.0365 6.09927C12.7275 6.10873 12.4601 6.00395 12.2344 5.78492L10.125 3.73838V11.5425C10.125 11.8518 10.017 12.1112 9.80099 12.3208C9.58499 12.5303 9.31799 12.6348 8.99999 12.634C8.68199 12.6333 8.41499 12.5285 8.19899 12.3197C7.98299 12.1108 7.87499 11.8518 7.87499 11.5425V3.73838Z" fill="#584738"/>
</svg>
