<svg width="24" height="12" viewBox="0 0 24 12" fill="none" xmlns="http://www.w3.org/2000/svg">
<path d="M6 12C4.34 12 2.9252 11.4148 1.7556 10.2444C0.586001 9.07399 0.000800819 7.65919 8.19113e-07 5.99999C-0.000799181 4.34079 0.584401 2.926 1.7556 1.7556C2.9268 0.5852 4.3416 0 6 0H9.6C9.94 0 10.2252 0.1152 10.4556 0.3456C10.686 0.575999 10.8008 0.860799 10.8 1.2C10.7992 1.5392 10.684 1.8244 10.4544 2.0556C10.2248 2.2868 9.94 2.4016 9.6 2.4H6C5 2.4 4.15 2.75 3.45 3.45C2.75 4.14999 2.4 4.99999 2.4 5.99999C2.4 6.99999 2.75 7.84999 3.45 8.54999C4.15 9.24999 5 9.59999 6 9.59999H9.6C9.94 9.59999 10.2252 9.71519 10.4556 9.94559C10.686 10.176 10.8008 10.4608 10.8 10.8C10.7992 11.1392 10.684 11.4244 10.4544 11.6556C10.2248 11.8868 9.94 12.0016 9.6 12H6ZM8.4 7.19999C8.06 7.19999 7.7752 7.08479 7.5456 6.85439C7.316 6.62399 7.2008 6.33919 7.2 5.99999C7.1992 5.66079 7.3144 5.37599 7.5456 5.14559C7.7768 4.91519 8.0616 4.79999 8.4 4.79999H15.6C15.94 4.79999 16.2252 4.91519 16.4556 5.14559C16.686 5.37599 16.8008 5.66079 16.8 5.99999C16.7992 6.33919 16.684 6.62439 16.4544 6.85559C16.2248 7.08679 15.94 7.20159 15.6 7.19999H8.4ZM14.4 12C14.06 12 13.7752 11.8848 13.5456 11.6544C13.316 11.424 13.2008 11.1392 13.2 10.8C13.1992 10.4608 13.3144 10.176 13.5456 9.94559C13.7768 9.71519 14.0616 9.59999 14.4 9.59999H18C19 9.59999 19.85 9.24999 20.55 8.54999C21.25 7.84999 21.6 6.99999 21.6 5.99999C21.6 4.99999 21.25 4.14999 20.55 3.45C19.85 2.75 19 2.4 18 2.4H14.4C14.06 2.4 13.7752 2.2848 13.5456 2.0544C13.316 1.824 13.2008 1.5392 13.2 1.2C13.1992 0.860799 13.3144 0.575999 13.5456 0.3456C13.7768 0.1152 14.0616 0 14.4 0H18C19.66 0 21.0752 0.5852 22.2456 1.7556C23.416 2.926 24.0008 4.34079 24 5.99999C23.9992 7.65919 23.414 9.07439 22.2444 10.2456C21.0748 11.4168 19.66 12.0016 18 12H14.4Z" fill="#584738"/>
</svg>
