<svg width="26" height="15" viewBox="0 0 26 15" fill="none" xmlns="http://www.w3.org/2000/svg">
<path d="M18.6875 0H7.3125C3.28047 0 0 3.36458 0 7.5C0 11.6354 3.28047 15 7.3125 15H18.6875C22.7195 15 26 11.6354 26 7.5C26 3.36458 22.7195 0 18.6875 0ZM18.6875 13.3333C17.5626 13.3333 16.463 12.9912 15.5277 12.3502C14.5924 11.7093 13.8634 10.7982 13.4329 9.73232C13.0025 8.66642 12.8898 7.49353 13.1093 6.36197C13.3287 5.23042 13.8704 4.19102 14.6658 3.37521C15.4612 2.5594 16.4747 2.00383 17.5779 1.77875C18.6812 1.55367 19.8248 1.66919 20.864 2.1107C21.9033 2.55221 22.7915 3.29989 23.4165 4.25917C24.0414 5.21846 24.375 6.34628 24.375 7.5C24.3734 9.04659 23.7737 10.5294 22.7074 11.623C21.6411 12.7166 20.1954 13.3317 18.6875 13.3333Z" fill="#584738"/>
</svg>
