<svg width="21" height="21" viewBox="0 0 21 21" fill="none" xmlns="http://www.w3.org/2000/svg">
<path d="M11 19H1.6C1.44087 19 1.28826 18.9368 1.17574 18.8243C1.06321 18.7117 1 18.5591 1 18.4V1.6C1 1.44087 1.06321 1.28826 1.17574 1.17574C1.28826 1.06321 1.44087 1 1.6 1H18.4C18.5591 1 18.7117 1.06321 18.8243 1.17574C18.9368 1.28826 19 1.44087 19 1.6V11M14 17H17M17 17H20M17 17V14M17 17V20" stroke="#584738" stroke-width="2" stroke-linecap="round" stroke-linejoin="round"/>
<path d="M7.898 6.51295C7.80681 6.46077 7.70352 6.43345 7.59846 6.43372C7.4934 6.43399 7.39025 6.46184 7.29933 6.51449C7.20841 6.56713 7.13291 6.64273 7.08038 6.73372C7.02785 6.82471 7.00013 6.92789 7 7.03295V12.966C6.99996 13.0711 7.02755 13.1744 7.08001 13.2655C7.13247 13.3567 7.20795 13.4324 7.2989 13.4852C7.38985 13.5379 7.49307 13.5659 7.59821 13.5662C7.70336 13.5665 7.80674 13.5392 7.898 13.487L13.088 10.521C13.1799 10.4685 13.2562 10.3927 13.3093 10.3012C13.3624 10.2097 13.3904 10.1057 13.3904 9.99995C13.3904 9.89416 13.3624 9.79024 13.3093 9.69875C13.2562 9.60725 13.1799 9.53142 13.088 9.47895L7.898 6.51295Z" stroke="#584738" stroke-width="2" stroke-linecap="round" stroke-linejoin="round"/>
</svg>
