<svg width="19" height="19" viewBox="0 0 19 19" fill="none" xmlns="http://www.w3.org/2000/svg">
<path d="M9.5 14.25C10.7598 14.25 11.968 13.7496 12.8588 12.8588C13.7496 11.968 14.25 10.7598 14.25 9.5C14.25 8.24022 13.7496 7.03204 12.8588 6.14124C11.968 5.25045 10.7598 4.75 9.5 4.75C8.24022 4.75 7.03204 5.25045 6.14124 6.14124C5.25045 7.03204 4.75 8.24022 4.75 9.5C4.75 10.7598 5.25045 11.968 6.14124 12.8588C7.03204 13.7496 8.24022 14.25 9.5 14.25ZM9.5 0C8.25244 -1.85901e-08 7.0171 0.245725 5.86451 0.723144C4.71191 1.20056 3.66464 1.90033 2.78249 2.78249C1.90033 3.66464 1.20056 4.71191 0.723145 5.86451C0.245725 7.0171 0 8.25244 0 9.5C0 10.7476 0.245725 11.9829 0.723145 13.1355C1.20056 14.2881 1.90033 15.3354 2.78249 16.2175C3.66464 17.0997 4.71191 17.7994 5.86451 18.2769C7.0171 18.7543 8.25244 19 9.5 19C12.0196 19 14.4359 17.9991 16.2175 16.2175C17.9991 14.4359 19 12.0196 19 9.5C19 6.98044 17.9991 4.56408 16.2175 2.78249C14.4359 1.00089 12.0196 3.75443e-08 9.5 0ZM1.58333 9.5C1.58333 7.40037 2.41741 5.38673 3.90207 3.90207C5.38673 2.41741 7.40037 1.58333 9.5 1.58333C11.5996 1.58333 13.6133 2.41741 15.0979 3.90207C16.5826 5.38673 17.4167 7.40037 17.4167 9.5C17.4167 11.5996 16.5826 13.6133 15.0979 15.0979C13.6133 16.5826 11.5996 17.4167 9.5 17.4167C7.40037 17.4167 5.38673 16.5826 3.90207 15.0979C2.41741 13.6133 1.58333 11.5996 1.58333 9.5Z" fill="#584738"/>
</svg>
