<svg width="23" height="33" viewBox="0 0 23 33" fill="none" xmlns="http://www.w3.org/2000/svg">
<path d="M11.0455 1.5C9.96052 1.5 8.91998 1.93101 8.15279 2.6982C7.38559 3.46539 6.95459 4.50593 6.95459 5.59091V16.5C6.95459 17.585 7.38559 18.6255 8.15279 19.3927C8.91998 20.1599 9.96052 20.5909 11.0455 20.5909C12.1305 20.5909 13.171 20.1599 13.9382 19.3927C14.7054 18.6255 15.1364 17.585 15.1364 16.5V5.59091C15.1364 4.50593 14.7054 3.46539 13.9382 2.6982C13.171 1.93101 12.1305 1.5 11.0455 1.5Z" stroke="#584738" stroke-width="3" stroke-linecap="round" stroke-linejoin="round"/>
<path d="M20.5909 13.7727V16.5C20.5909 19.0316 19.5852 21.4595 17.7951 23.2496C16.005 25.0398 13.5771 26.0454 11.0455 26.0454C8.51384 26.0454 6.08592 25.0398 4.2958 23.2496C2.50568 21.4595 1.5 19.0316 1.5 16.5V13.7727" stroke="#584738" stroke-width="3" stroke-linecap="round" stroke-linejoin="round"/>
<path d="M11.0454 26.0454V31.5" stroke="#584738" stroke-width="3" stroke-linecap="round" stroke-linejoin="round"/>
<path d="M5.59094 31.5H16.5" stroke="#584738" stroke-width="3" stroke-linecap="round" stroke-linejoin="round"/>
</svg>
