<svg width="40" height="38" viewBox="0 0 40 38" fill="none" xmlns="http://www.w3.org/2000/svg">
<path d="M30.8205 38C31.5482 38 32.1577 37.7497 32.6492 37.2491C33.1406 36.7485 33.3871 36.1298 33.3889 35.3928C33.3906 34.6558 33.144 34.0371 32.6492 33.5365C32.1543 33.0359 31.5448 32.7856 30.8205 32.7856H15.1534C12.4566 32.7856 10.1125 31.9165 8.1212 30.1784C6.12985 28.4403 5.13504 26.2676 5.13675 23.6604C5.13846 21.0532 6.13328 18.8805 8.1212 17.1424C10.1091 15.4042 12.4532 14.5352 15.1534 14.5352H31.3342L26.4542 19.4888C25.9834 19.9668 25.7479 20.5752 25.7479 21.3139C25.7479 22.0526 25.9834 22.6609 26.4542 23.1389C26.9251 23.6169 27.5244 23.8559 28.2521 23.8559C28.9798 23.8559 29.5791 23.6169 30.05 23.1389L39.2961 13.753C39.5529 13.4923 39.7353 13.2098 39.8432 12.9057C39.951 12.6015 40.0033 12.2756 39.9998 11.928C39.9964 11.5803 39.9425 11.2544 39.838 10.9503C39.7336 10.6461 39.5529 10.3636 39.2961 10.1029L30.05 0.71698C29.5791 0.238993 28.9798 0 28.2521 0C27.5244 0 26.9251 0.238993 26.4542 0.71698C25.9834 1.19497 25.7479 1.80332 25.7479 2.54202C25.7479 3.28073 25.9834 3.88908 26.4542 4.36707L31.3342 9.32075H15.1534C11.0012 9.32075 7.43715 10.6895 4.46127 13.4271C1.48537 16.1647 -0.00170898 19.5758 0 23.6604C0.0017128 27.745 1.4888 31.1561 4.46127 33.8937C7.43373 36.6312 10.9978 38 15.1534 38H30.8205Z" fill="#584738"/>
</svg>
