<svg width="44" height="46" viewBox="0 0 44 46" fill="none" xmlns="http://www.w3.org/2000/svg">
<path d="M21.8277 29.15C25.2243 29.15 27.9777 26.3965 27.9777 23C27.9777 19.6034 25.2243 16.85 21.8277 16.85C18.4312 16.85 15.6777 19.6034 15.6777 23C15.6777 26.3965 18.4312 29.15 21.8277 29.15Z" stroke="#584738" stroke-width="5"/>
<path d="M25.446 2.8116C24.6937 2.5 23.7384 2.5 21.8278 2.5C19.9172 2.5 18.9619 2.5 18.2095 2.8116C17.7117 3.01765 17.2595 3.31979 16.8785 3.70073C16.4976 4.08168 16.1954 4.53397 15.9894 5.03175C15.8008 5.4889 15.7249 6.02395 15.6962 6.8009C15.6829 7.36245 15.5273 7.91145 15.2441 8.39653C14.9609 8.8816 14.5592 9.28692 14.0767 9.57455C13.5864 9.84878 13.0345 9.99413 12.4727 9.997C11.9109 9.99987 11.3575 9.86016 10.8644 9.59095C10.1756 9.22605 9.67743 9.02515 9.18338 8.95955C8.10573 8.81783 7.01591 9.10983 6.15348 9.77135C5.50978 10.2695 5.03008 11.0956 4.07478 12.75C3.11948 14.4043 2.63978 15.2305 2.53523 16.0402C2.46478 16.5742 2.50021 17.1168 2.63951 17.637C2.7788 18.1572 3.01922 18.6449 3.34703 19.0722C3.65043 19.4658 4.07478 19.7958 4.73283 20.2099C5.70248 20.8188 6.32568 21.8561 6.32568 23C6.32568 24.1439 5.70248 25.1812 4.73283 25.788C4.07478 26.2041 3.64838 26.5342 3.34703 26.9278C3.01922 27.3551 2.7788 27.8428 2.63951 28.363C2.50021 28.8832 2.46478 29.4258 2.53523 29.9598C2.64183 30.7675 3.11948 31.5956 4.07273 33.25C5.03008 34.9043 5.50773 35.7305 6.15348 36.2286C6.58077 36.5565 7.06846 36.7969 7.58869 36.9362C8.10893 37.0755 8.6515 37.1109 9.18543 37.0405C9.67743 36.9749 10.1756 36.7739 10.8644 36.409C11.3575 36.1398 11.9109 36.0001 12.4727 36.003C13.0345 36.0059 13.5864 36.1512 14.0767 36.4254C15.0669 36.9994 15.6552 38.0552 15.6962 39.1991C15.7249 39.9781 15.7987 40.5111 15.9894 40.9682C16.1954 41.466 16.4976 41.9183 16.8785 42.2993C17.2595 42.6802 17.7117 42.9823 18.2095 43.1884C18.9619 43.5 19.9172 43.5 21.8278 43.5C23.7384 43.5 24.6937 43.5 25.446 43.1884C25.9438 42.9823 26.3961 42.6802 26.777 42.2993C27.158 41.9183 27.4601 41.466 27.6662 40.9682C27.8548 40.5111 27.9306 39.9781 27.9593 39.1991C28.0003 38.0552 28.5887 36.9974 29.5788 36.4254C30.0692 36.1512 30.6211 36.0059 31.1829 36.003C31.7447 36.0001 32.2981 36.1398 32.7912 36.409C33.48 36.7739 33.9781 36.9749 34.4701 37.0405C35.0041 37.1109 35.5466 37.0755 36.0669 36.9362C36.5871 36.7969 37.0748 36.5565 37.5021 36.2286C38.1478 35.7325 38.6255 34.9043 39.5808 33.25C40.5361 31.5956 41.0158 30.7695 41.1203 29.9598C41.1908 29.4258 41.1553 28.8832 41.0161 28.363C40.8768 27.8428 40.6363 27.3551 40.3085 26.9278C40.0051 26.5342 39.5808 26.2041 38.9227 25.79C38.4429 25.4977 38.0451 25.0884 37.7665 24.6005C37.4879 24.1125 37.3377 23.5618 37.3299 23C37.3299 21.8561 37.9531 20.8188 38.9227 20.212C39.5808 19.7959 40.0072 19.4658 40.3085 19.0722C40.6363 18.6449 40.8768 18.1572 41.0161 17.637C41.1553 17.1168 41.1908 16.5742 41.1203 16.0402C41.0137 15.2325 40.5361 14.4043 39.5828 12.75C38.6255 11.0956 38.1478 10.2695 37.5021 9.77135C37.0748 9.44354 36.5871 9.20312 36.0669 9.06383C35.5466 8.92454 35.0041 8.8891 34.4701 8.95955C33.9781 9.02515 33.48 9.22605 32.7891 9.59095C32.2963 9.85979 31.7433 9.9993 31.1819 9.99643C30.6204 9.99356 30.0689 9.84842 29.5788 9.57455C29.0963 9.28692 28.6947 8.8816 28.4115 8.39653C28.1282 7.91145 27.9727 7.36245 27.9593 6.8009C27.9306 6.0219 27.8568 5.4889 27.6662 5.03175C27.4601 4.53397 27.158 4.08168 26.777 3.70073C26.3961 3.31979 25.9438 3.01765 25.446 2.8116Z" stroke="#584738" stroke-width="5"/>
</svg>
