<svg width="17" height="15" viewBox="0 0 17 15" fill="none" xmlns="http://www.w3.org/2000/svg">
<path d="M16.15 0C16.3754 0 16.5916 0.0877973 16.751 0.244078C16.9104 0.400358 17 0.61232 17 0.833333C17 1.05435 16.9104 1.26631 16.751 1.42259C16.5916 1.57887 16.3754 1.66667 16.15 1.66667V9.16667C16.15 9.82971 15.8813 10.4656 15.4031 10.9344C14.9249 11.4033 14.2763 11.6667 13.6 11.6667H9.35V13.3333H11.05C11.2754 13.3333 11.4916 13.4211 11.651 13.5774C11.8104 13.7337 11.9 13.9457 11.9 14.1667C11.9 14.3877 11.8104 14.5996 11.651 14.7559C11.4916 14.9122 11.2754 15 11.05 15H5.95C5.72457 15 5.50837 14.9122 5.34896 14.7559C5.18955 14.5996 5.1 14.3877 5.1 14.1667C5.1 13.9457 5.18955 13.7337 5.34896 13.5774C5.50837 13.4211 5.72457 13.3333 5.95 13.3333H7.65V11.6667H3.4C2.7237 11.6667 2.0751 11.4033 1.59688 10.9344C1.11866 10.4656 0.85 9.82971 0.85 9.16667V1.66667C0.624566 1.66667 0.408365 1.57887 0.248959 1.42259C0.0895533 1.26631 0 1.05435 0 0.833333C0 0.61232 0.0895533 0.400358 0.248959 0.244078C0.408365 0.0877973 0.624566 0 0.85 0H16.15ZM12.501 3.5775C12.3416 3.42127 12.1254 3.33351 11.9 3.33351C11.6746 3.33351 11.4584 3.42127 11.2991 3.5775L9.35 5.4875L8.25095 4.41083C8.09155 4.25461 7.87539 4.16684 7.65 4.16684C7.42461 4.16684 7.20845 4.25461 7.04905 4.41083L4.49905 6.91083C4.3397 7.06711 4.25018 7.27903 4.25018 7.5C4.25018 7.72097 4.3397 7.93289 4.49905 8.08917L4.57895 8.15833C4.74249 8.28271 4.94671 8.34431 5.15328 8.33157C5.35985 8.31884 5.55459 8.23265 5.70095 8.08917L7.65 6.17917L8.74905 7.25583C8.90845 7.41206 9.12461 7.49982 9.35 7.49982C9.57539 7.49982 9.79155 7.41206 9.95095 7.25583L12.501 4.75583C12.6603 4.59956 12.7498 4.38764 12.7498 4.16667C12.7498 3.9457 12.6603 3.73377 12.501 3.5775Z" fill="#584738"/>
</svg>
