<svg width="18" height="18" viewBox="0 0 18 18" fill="none" xmlns="http://www.w3.org/2000/svg">
<path fill-rule="evenodd" clip-rule="evenodd" d="M9.53366 17.5192L9.52376 17.5209L9.45986 17.5511L9.44186 17.5546L9.42926 17.5511L9.36536 17.5209C9.35576 17.518 9.34856 17.5194 9.34376 17.5252L9.34016 17.5339L9.32486 17.904L9.32936 17.9213L9.33836 17.9325L9.43196 17.9965L9.44546 18L9.45626 17.9965L9.54986 17.9325L9.56066 17.9187L9.56426 17.904L9.54896 17.5347C9.54656 17.5255 9.54146 17.5203 9.53366 17.5192ZM9.77216 17.4214L9.76046 17.4232L9.59396 17.5036L9.58496 17.5122L9.58226 17.5217L9.59846 17.8936L9.60296 17.904L9.61016 17.91L9.79106 17.9905C9.80246 17.9934 9.81116 17.991 9.81716 17.9836L9.82076 17.9714L9.79016 17.4405C9.78716 17.4301 9.78116 17.4237 9.77216 17.4214ZM9.12866 17.4232C9.12469 17.4208 9.11995 17.4201 9.11543 17.4211C9.1109 17.422 9.10693 17.4246 9.10436 17.4283L9.09896 17.4405L9.06836 17.9714C9.06896 17.9818 9.07406 17.9887 9.08366 17.9922L9.09716 17.9905L9.27806 17.91L9.28706 17.9031L9.29066 17.8936L9.30596 17.5217L9.30326 17.5114L9.29426 17.5027L9.12866 17.4232Z" fill="#584738"/>
<path fill-rule="evenodd" clip-rule="evenodd" d="M1.8 0C1.32261 0 0.864773 0.182226 0.527208 0.50659C0.189642 0.830953 0 1.27089 0 1.72961V13.8368C0 14.2956 0.189642 14.7355 0.527208 15.0599C0.864773 15.3842 1.32261 15.5664 1.8 15.5664H16.2C16.6774 15.5664 17.1352 15.3842 17.4728 15.0599C17.8104 14.7355 18 14.2956 18 13.8368V1.72961C18 1.27089 17.8104 0.830953 17.4728 0.50659C17.1352 0.182226 16.6774 0 16.2 0H1.8ZM5.9625 4.86884C5.98247 4.7035 6.04238 4.54494 6.13745 4.40581C6.23252 4.26667 6.36012 4.15081 6.51006 4.06747C6.66 3.98413 6.82814 3.93562 7.00106 3.92581C7.17398 3.916 7.34689 3.94515 7.506 4.01095C7.9596 4.19775 8.9172 4.61805 10.1304 5.29086C10.983 5.7591 11.8064 6.27482 12.5964 6.8354C12.7353 6.93471 12.8481 7.06384 12.9258 7.21249C13.0035 7.36115 13.044 7.5252 13.044 7.69155C13.044 7.85791 13.0035 8.02196 12.9258 8.17061C12.8481 8.31927 12.7353 8.4484 12.5964 8.54771C11.8064 9.10769 10.983 9.62284 10.1304 10.0905C9.28234 10.5665 8.40604 10.9944 7.506 11.3722C7.34691 11.4381 7.17395 11.4675 7.00096 11.4577C6.82797 11.448 6.65975 11.3995 6.50976 11.3161C6.35976 11.2328 6.23214 11.1168 6.13712 10.9776C6.04209 10.8384 5.98229 10.6797 5.9625 10.5143C5.85451 9.57697 5.80163 8.63457 5.8041 7.69155C5.8041 6.35025 5.9049 5.34016 5.9625 4.86884Z" fill="#584738"/>
</svg>
