<svg width="16" height="18" viewBox="0 0 16 18" fill="none" xmlns="http://www.w3.org/2000/svg">
<path fill-rule="evenodd" clip-rule="evenodd" d="M1.04178 1.0548C-7.94729e-08 2.1087 0 3.8061 0 7.2V10.8C0 14.1939 -7.94729e-08 15.8913 1.04178 16.9452C2.08356 17.9991 3.75911 18 7.11111 18H8.88889C12.2409 18 13.9173 18 14.9582 16.9452C15.9991 15.8904 16 14.1939 16 10.8V7.2C16 3.8061 16 2.1087 14.9582 1.0548C13.9164 0.000899951 12.2409 0 8.88889 0H7.11111C3.75911 0 2.08267 -7.94729e-08 1.04178 1.0548ZM4.44444 6.525C4.26763 6.525 4.09806 6.59612 3.97304 6.7227C3.84802 6.84929 3.77778 7.02098 3.77778 7.2C3.77778 7.37902 3.84802 7.55071 3.97304 7.6773C4.09806 7.80388 4.26763 7.875 4.44444 7.875H11.5556C11.7324 7.875 11.9019 7.80388 12.027 7.6773C12.152 7.55071 12.2222 7.37902 12.2222 7.2C12.2222 7.02098 12.152 6.84929 12.027 6.7227C11.9019 6.59612 11.7324 6.525 11.5556 6.525H4.44444ZM4.44444 10.125C4.26763 10.125 4.09806 10.1961 3.97304 10.3227C3.84802 10.4493 3.77778 10.621 3.77778 10.8C3.77778 10.979 3.84802 11.1507 3.97304 11.2773C4.09806 11.4039 4.26763 11.475 4.44444 11.475H8.88889C9.0657 11.475 9.23527 11.4039 9.36029 11.2773C9.48532 11.1507 9.55556 10.979 9.55556 10.8C9.55556 10.621 9.48532 10.4493 9.36029 10.3227C9.23527 10.1961 9.0657 10.125 8.88889 10.125H4.44444Z" fill="#584738"/>
</svg>
