<svg width="20" height="5" viewBox="0 0 20 5" fill="none" xmlns="http://www.w3.org/2000/svg">
<path d="M17.5 0C16.47 0 15.6 0.62 15.21 1.5H12.29C11.9 0.62 11.03 0 10 0C8.97 0 8.1 0.62 7.71 1.5H4.79C4.4 0.62 3.53 0 2.5 0C1.83696 0 1.20107 0.263392 0.732233 0.732233C0.263392 1.20107 0 1.83696 0 2.5C0 3.16304 0.263392 3.79893 0.732233 4.26777C1.20107 4.73661 1.83696 5 2.5 5C3.53 5 4.4 4.38 4.79 3.5H7.71C8.1 4.38 8.97 5 10 5C11.03 5 11.9 4.38 12.29 3.5H15.21C15.6 4.38 16.47 5 17.5 5C18.163 5 18.7989 4.73661 19.2678 4.26777C19.7366 3.79893 20 3.16304 20 2.5C20 1.83696 19.7366 1.20107 19.2678 0.732233C18.7989 0.263392 18.163 0 17.5 0Z" fill="#584738"/>
</svg>
