<svg width="20" height="17" viewBox="0 0 20 17" fill="none" xmlns="http://www.w3.org/2000/svg">
<path d="M9 5H19C19.6 5 20 5.4 20 6C20 6.6 19.6 7 19 7H9C8.4 7 8 6.6 8 6C8 5.4 8.4 5 9 5ZM1 0H19C19.6 0 20 0.4 20 1C20 1.6 19.6 2 19 2H1C0.4 2 0 1.6 0 1C0 0.4 0.4 0 1 0Z" fill="#584738"/>
<path d="M9 15H19C19.6 15 20 15.4 20 16C20 16.6 19.6 17 19 17H9C8.4 17 8 16.6 8 16C8 15.4 8.4 15 9 15ZM1 10H19C19.6 10 20 10.4 20 11C20 11.6 19.6 12 19 12H1C0.4 12 0 11.6 0 11C0 10.4 0.4 10 1 10Z" fill="#584738"/>
</svg>
