<svg width="104" height="104" viewBox="0 0 104 104" fill="none" xmlns="http://www.w3.org/2000/svg">
<rect width="104" height="104" fill="#F6F8ED"/>
<path d="M0 52C0 23.296 23.296 0 52 0C80.704 0 104 23.296 104 52C104 80.704 80.704 104 52 104C23.296 104 0 80.704 0 52Z" fill="#584738"/>
<path d="M57.2605 44.3333L59.6624 46.7356L36.4612 69.8889H34.1104V67.5378L57.2605 44.3333ZM66.4592 29C65.8204 29 65.1561 29.2556 64.6706 29.7411L59.9946 34.4178L69.5766 44.0011L74.2526 39.3244C75.2491 38.3278 75.2491 36.6667 74.2526 35.7211L68.2734 29.7411C67.7624 29.23 67.1236 29 66.4592 29ZM57.2605 37.1522L29 65.4167V75H38.582L66.8425 46.7356L57.2605 37.1522Z" fill="#F6F8ED"/>
</svg>
