<svg width="27" height="15" viewBox="0 0 27 15" fill="none" xmlns="http://www.w3.org/2000/svg">
<path d="M7.59375 0H19.4062C23.5934 0 27 3.36458 27 7.5C27 11.6354 23.5934 15 19.4062 15H7.59375C3.40664 15 -1.90735e-06 11.6354 -1.90735e-06 7.5C-1.90735e-06 3.36458 3.40664 0 7.59375 0ZM7.59375 13.3333C8.7619 13.3333 9.90381 12.9912 10.8751 12.3502C11.8464 11.7093 12.6034 10.7982 13.0504 9.73232C13.4974 8.66642 13.6144 7.49353 13.3865 6.36197C13.1586 5.23042 12.5961 4.19102 11.7701 3.37521C10.9441 2.5594 9.8917 2.00383 8.746 1.77875C7.6003 1.55367 6.41275 1.66919 5.33352 2.1107C4.2543 2.55221 3.33187 3.29989 2.68288 4.25917C2.03389 5.21846 1.6875 6.34628 1.6875 7.5C1.68917 9.04659 2.31198 10.5294 3.41925 11.623C4.52652 12.7166 6.02783 13.3317 7.59375 13.3333Z" fill="#B59E7D"/>
</svg>
