<svg width="20" height="17" viewBox="0 0 20 17" fill="none" xmlns="http://www.w3.org/2000/svg">
<path d="M15 5H5C4.4 5 4 5.4 4 6C4 6.6 4.4 7 5 7H15C15.6 7 16 6.6 16 6C16 5.4 15.6 5 15 5ZM19 0H1C0.4 0 0 0.4 0 1C0 1.6 0.4 2 1 2H19C19.6 2 20 1.6 20 1C20 0.4 19.6 0 19 0Z" fill="#584738"/>
<path d="M15 15H5C4.4 15 4 15.4 4 16C4 16.6 4.4 17 5 17H15C15.6 17 16 16.6 16 16C16 15.4 15.6 15 15 15ZM19 10H1C0.4 10 0 10.4 0 11C0 11.6 0.4 12 1 12H19C19.6 12 20 11.6 20 11C20 10.4 19.6 10 19 10Z" fill="#584738"/>
</svg>
