<svg width="71" height="58" viewBox="0 0 71 58" fill="none" xmlns="http://www.w3.org/2000/svg">
<path d="M54.8636 54.7778V45.1111H45.1818V38.6667H54.8636V29H61.3182V38.6667H71V45.1111H61.3182V54.7778H54.8636ZM6.45455 58C4.67955 58 3.16058 57.3695 1.89764 56.1086C0.634697 54.8476 0.00215152 53.3299 0 51.5556V6.44444C0 4.67222 0.632546 3.15563 1.89764 1.89467C3.16273 0.633704 4.6817 0.00214815 6.45455 0H51.6364C53.4114 0 54.9314 0.631556 56.1965 1.89467C57.4616 3.15778 58.0931 4.67437 58.0909 6.44444V22.5556H51.6364V16.1111H6.45455V51.5556H48.4091V58H6.45455Z" fill="#F6F8ED"/>
</svg>
