<svg width="36" height="33" viewBox="0 0 36 33" fill="none" xmlns="http://www.w3.org/2000/svg">
<path d="M10.8 33C9.81 33 8.9628 32.6413 8.2584 31.9238C7.554 31.2064 7.2012 30.3429 7.2 29.3333V25.6667H3.6C2.61 25.6667 1.7628 25.3079 1.0584 24.5905C0.354 23.8731 0.0012 23.0096 0 22V14.6667C0 13.1083 0.525 11.8024 1.575 10.7488C2.625 9.69528 3.9 9.16789 5.4 9.16667H30.6C32.13 9.16667 33.4128 9.69405 34.4484 10.7488C35.484 11.8036 36.0012 13.1096 36 14.6667V22C36 23.0083 35.6478 23.8718 34.9434 24.5905C34.239 25.3092 33.3912 25.6679 32.4 25.6667H28.8V29.3333C28.8 30.3417 28.4478 31.2052 27.7434 31.9238C27.039 32.6425 26.1912 33.0012 25.2 33H10.8ZM3.6 22H7.2C7.2 20.9917 7.5528 20.1288 8.2584 19.4113C8.964 18.6939 9.8112 18.3346 10.8 18.3333H25.2C26.19 18.3333 27.0378 18.6927 27.7434 19.4113C28.449 20.13 28.8012 20.9929 28.8 22H32.4V14.6667C32.4 14.1472 32.2272 13.7121 31.8816 13.3613C31.536 13.0106 31.1088 12.8346 30.6 12.8333H5.4C4.89 12.8333 4.4628 13.0093 4.1184 13.3613C3.774 13.7133 3.6012 14.1484 3.6 14.6667V22ZM25.2 9.16667V3.66667H10.8V9.16667H7.2V3.66667C7.2 2.65833 7.5528 1.79544 8.2584 1.078C8.964 0.360556 9.8112 0.00122222 10.8 0H25.2C26.19 0 27.0378 0.359333 27.7434 1.078C28.449 1.79667 28.8012 2.65956 28.8 3.66667V9.16667H25.2ZM28.8 17.4167C29.31 17.4167 29.7378 17.2407 30.0834 16.8887C30.429 16.5367 30.6012 16.1016 30.6 15.5833C30.5988 15.0651 30.426 14.63 30.0816 14.278C29.7372 13.926 29.31 13.75 28.8 13.75C28.29 13.75 27.8628 13.926 27.5184 14.278C27.174 14.63 27.0012 15.0651 27 15.5833C26.9988 16.1016 27.1716 16.5373 27.5184 16.8905C27.8652 17.2437 28.2924 17.4191 28.8 17.4167ZM25.2 29.3333V22H10.8V29.3333H25.2Z" fill="#584738"/>
</svg>
