<svg width="72" height="72" viewBox="0 0 72 72" fill="none" xmlns="http://www.w3.org/2000/svg">
<rect width="72" height="72" fill="#F6F8ED"/>
<path d="M0 36C0 16.128 16.128 0 36 0C55.872 0 72 16.128 72 36C72 55.872 55.872 72 36 72C16.128 72 0 55.872 0 36Z" fill="#584738"/>
<path d="M35.1 11.25C41.076 11.25 45.9 16.074 45.9 22.05C45.9 28.026 41.076 32.85 35.1 32.85C29.124 32.85 24.3 28.026 24.3 22.05C24.3 16.074 29.124 11.25 35.1 11.25ZM35.1 62.37C26.1 62.37 18.144 57.762 13.5 50.778C13.608 43.614 27.9 39.69 35.1 39.69C42.264 39.69 56.592 43.614 56.7 50.778C52.056 57.762 44.1 62.37 35.1 62.37Z" fill="white"/>
</svg>
