<svg width="44" height="44" viewBox="0 0 44 44" fill="none" xmlns="http://www.w3.org/2000/svg">
<path d="M21.6667 43.3333C9.72833 43.3333 0 33.605 0 21.6667C0 9.72833 9.72833 0 21.6667 0C33.605 0 43.3333 8.75333 43.3333 19.5C43.3333 26.6717 37.505 32.5 30.3333 32.5H26.4983C25.8917 32.5 25.415 32.9767 25.415 33.5833C25.415 33.8433 25.5233 34.0817 25.6967 34.2983C26.585 35.3167 27.0833 36.595 27.0833 37.9167C27.0833 39.3533 26.5126 40.731 25.4968 41.7468C24.481 42.7626 23.1033 43.3333 21.6667 43.3333ZM21.6667 4.33333C12.1117 4.33333 4.33333 12.1117 4.33333 21.6667C4.33333 31.2217 12.1117 39 21.6667 39C22.2733 39 22.75 38.5233 22.75 37.9167C22.7433 37.6357 22.6356 37.3665 22.4467 37.1583C21.5583 36.1617 21.0817 34.8833 21.0817 33.5833C21.0817 32.1467 21.6523 30.769 22.6682 29.7532C23.684 28.7373 25.0617 28.1667 26.4983 28.1667H30.3333C35.1217 28.1667 39 24.2883 39 19.5C39 11.1367 31.2217 4.33333 21.6667 4.33333Z" fill="#584738"/>
<path d="M9.75 23.8333C11.5449 23.8333 13 22.3782 13 20.5833C13 18.7883 11.5449 17.3333 9.75 17.3333C7.95507 17.3333 6.5 18.7883 6.5 20.5833C6.5 22.3782 7.95507 23.8333 9.75 23.8333Z" fill="#584738"/>
<path d="M16.25 15.1666C18.0449 15.1666 19.5 13.7116 19.5 11.9166C19.5 10.1217 18.0449 8.66663 16.25 8.66663C14.4551 8.66663 13 10.1217 13 11.9166C13 13.7116 14.4551 15.1666 16.25 15.1666Z" fill="#584738"/>
<path d="M27.0835 15.1666C28.8784 15.1666 30.3335 13.7116 30.3335 11.9166C30.3335 10.1217 28.8784 8.66663 27.0835 8.66663C25.2886 8.66663 23.8335 10.1217 23.8335 11.9166C23.8335 13.7116 25.2886 15.1666 27.0835 15.1666Z" fill="#584738"/>
<path d="M33.5835 23.8333C35.3784 23.8333 36.8335 22.3782 36.8335 20.5833C36.8335 18.7883 35.3784 17.3333 33.5835 17.3333C31.7886 17.3333 30.3335 18.7883 30.3335 20.5833C30.3335 22.3782 31.7886 23.8333 33.5835 23.8333Z" fill="#584738"/>
</svg>
