<svg width="40" height="38" viewBox="0 0 40 38" fill="none" xmlns="http://www.w3.org/2000/svg">
<path d="M9.17952 38C8.45182 38 7.84226 37.7497 7.35084 37.2491C6.85943 36.7485 6.61286 36.1298 6.61115 35.3928C6.60944 34.6558 6.856 34.0371 7.35084 33.5365C7.84568 33.0359 8.45524 32.7856 9.17952 32.7856H24.8466C27.5434 32.7856 29.8875 31.9165 31.8788 30.1784C33.8701 28.4403 34.865 26.2676 34.8633 23.6604C34.8615 21.0532 33.8667 18.8805 31.8788 17.1424C29.8909 15.4042 27.5468 14.5352 24.8466 14.5352H8.66585L13.5458 19.4888C14.0166 19.9668 14.2521 20.5752 14.2521 21.3139C14.2521 22.0526 14.0166 22.6609 13.5458 23.1389C13.0749 23.6169 12.4756 23.8559 11.7479 23.8559C11.0202 23.8559 10.4209 23.6169 9.95004 23.1389L0.703891 13.753C0.447054 13.4923 0.2647 13.2098 0.156828 12.9057C0.0489568 12.6015 -0.00326644 12.2756 0.000158055 11.928C0.00358255 11.5803 0.0575177 11.2544 0.161965 10.9503C0.266412 10.6461 0.447054 10.3636 0.703891 10.1029L9.95004 0.71698C10.4209 0.238993 11.0202 0 11.7479 0C12.4756 0 13.0749 0.238993 13.5458 0.71698C14.0166 1.19497 14.2521 1.80332 14.2521 2.54202C14.2521 3.28073 14.0166 3.88908 13.5458 4.36707L8.66585 9.32075H24.8466C28.9988 9.32075 32.5628 10.6895 35.5387 13.4271C38.5146 16.1647 40.0017 19.5758 40 23.6604C39.9983 27.745 38.5112 31.1561 35.5387 33.8937C32.5663 36.6312 29.0022 38 24.8466 38H9.17952Z" fill="#584738"/>
</svg>
