<?xml version="1.0" encoding="UTF-8" standalone="no"?><!DOCTYPE svg PUBLIC "-//W3C//DTD SVG 1.1//EN" "http://www.w3.org/Graphics/SVG/1.1/DTD/svg11.dtd"><svg width="100%" height="100%" viewBox="0 0 1450 1507" version="1.1" xmlns="http://www.w3.org/2000/svg" xmlns:xlink="http://www.w3.org/1999/xlink" xml:space="preserve" xmlns:serif="http://www.serif.com/" style="fill-rule:evenodd;clip-rule:evenodd;stroke-linejoin:round;stroke-miterlimit:2;"><path id="first" d="M1449.449,362.362l0,781.41c0,199.993 -162.369,362.362 -362.362,362.362l-724.725,0c-199.993,0 -362.362,-162.369 -362.362,-362.362l0,-781.41c0,-199.993 162.369,-362.362 362.362,-362.362l724.725,0c199.993,0 362.362,162.369 362.362,362.362Z" style="fill:#584738;"/><clipPath id="_clip1"><path d="M1449.449,362.362l0,781.41c0,199.993 -162.369,362.362 -362.362,362.362l-724.725,0c-199.993,0 -362.362,-162.369 -362.362,-362.362l0,-781.41c0,-199.993 162.369,-362.362 362.362,-362.362l724.725,0c199.993,0 362.362,162.369 362.362,362.362Z"/></clipPath><g clip-path="url(#_clip1)"><g><g><path d="M475.224,387.939l0,54.433c0,15.021 -12.195,27.217 -27.217,27.217l-59.861,0c-15.021,0 -27.217,-12.195 -27.217,-27.217l0,-54.433c0,-15.021 12.195,-27.217 27.217,-27.217l59.861,0c15.021,0 27.217,12.195 27.217,27.217Z" style="fill:#fff;"/><path d="M637.14,387.939l0,54.433c0,15.021 -12.195,27.217 -27.217,27.217l-59.861,0c-15.021,0 -27.217,-12.195 -27.217,-27.217l0,-54.433c0,-15.021 12.195,-27.217 27.217,-27.217l59.861,0c15.021,0 27.217,12.195 27.217,27.217Z" style="fill:#fff;"/><path d="M313.307,387.939l0,54.433c0,15.021 -12.195,27.217 -27.217,27.217l-55.098,0c-15.021,0 -27.217,-12.195 -27.217,-27.217l0,-54.433c0,-15.021 12.195,-27.217 27.217,-27.217l55.098,0c15.021,0 27.217,12.195 27.217,27.217Z" style="fill:#fff;"/><path d="M1174.254,387.939l0,54.433c0,15.021 -12.195,27.217 -27.217,27.217l-55.098,0c-15.021,0 -27.217,-12.195 -27.217,-27.217l0,-54.433c0,-15.021 12.195,-27.217 27.217,-27.217l55.098,0c15.021,0 27.217,12.195 27.217,27.217Z" style="fill:#fff;"/><path d="M935.12,387.939l0,54.433c0,15.021 -12.195,27.217 -27.217,27.217l-195.923,0c-15.021,0 -27.217,-12.195 -27.217,-27.217l0,-54.433c0,-15.021 12.195,-27.217 27.217,-27.217l195.923,0c15.021,0 27.217,12.195 27.217,27.217Z" style="fill:#fff;"/><path d="M1244.666,224.638l0,54.433c0,15.021 -12.195,27.217 -27.217,27.217l-195.923,0c-15.021,0 -27.217,-12.195 -27.217,-27.217l0,-54.433c0,-15.021 12.195,-27.217 27.217,-27.217l195.923,0c15.021,0 27.217,12.195 27.217,27.217Z" style="fill:#fff;"/></g><g><path d="M973.722,1118.196l0,-54.433c0,-15.021 12.195,-27.217 27.217,-27.217l59.861,0c15.021,0 27.217,12.195 27.217,27.217l-0,54.433c0,15.021 -12.195,27.217 -27.217,27.217l-59.861,0c-15.021,0 -27.217,-12.195 -27.217,-27.217Z" style="fill:#fff;"/><path d="M811.805,1118.196l0,-54.433c0,-15.021 12.195,-27.217 27.217,-27.217l59.861,0c15.021,0 27.217,12.195 27.217,27.217l-0,54.433c0,15.021 -12.195,27.217 -27.217,27.217l-59.861,0c-15.021,0 -27.217,-12.195 -27.217,-27.217Z" style="fill:#fff;"/><path d="M1135.638,1118.196l0,-54.433c0,-15.021 12.195,-27.217 27.217,-27.217l55.098,0c15.021,0 27.217,12.195 27.217,27.217l0,54.433c0,15.021 -12.195,27.217 -27.217,27.217l-55.098,0c-15.021,0 -27.217,-12.195 -27.217,-27.217Z" style="fill:#fff;"/><path d="M274.692,1118.196l0,-54.433c0,-15.021 12.195,-27.217 27.217,-27.217l55.098,0c15.021,0 27.217,12.195 27.217,27.217l0,54.433c0,15.021 -12.195,27.217 -27.217,27.217l-55.098,0c-15.021,0 -27.217,-12.195 -27.217,-27.217Z" style="fill:#fff;"/><path d="M513.826,1118.196l0,-54.433c0,-15.021 12.195,-27.217 27.217,-27.217l195.923,0c15.021,0 27.217,12.195 27.217,27.217l0,54.433c0,15.021 -12.195,27.217 -27.217,27.217l-195.923,0c-15.021,0 -27.217,-12.195 -27.217,-27.217Z" style="fill:#fff;"/><path d="M204.279,1281.497l0,-54.433c0,-15.021 12.195,-27.217 27.217,-27.217l195.923,0c15.021,0 27.217,12.195 27.217,27.217l0,54.433c0,15.021 -12.195,27.217 -27.217,27.217l-195.923,0c-15.021,0 -27.217,-12.195 -27.217,-27.217Z" style="fill:#fff;"/></g><g><path d="M1185.067,646.714l0,54.433c0,15.021 -12.195,27.217 -27.217,27.217l-55.098,0c-15.021,0 -27.217,-12.195 -27.217,-27.217l0,-54.433c0,-15.021 12.195,-27.217 27.217,-27.217l55.098,0c15.021,0 27.217,12.195 27.217,27.217Z" style="fill:#fff;"/><path d="M454.132,646.714l0,54.433c0,15.021 -12.195,27.217 -27.217,27.217l-195.923,0c-15.021,0 -27.217,-12.195 -27.217,-27.217l0,-54.433c0,-15.021 12.195,-27.217 27.217,-27.217l195.923,0c15.021,0 27.217,12.195 27.217,27.217Z" style="fill:#fff;"/><path d="M765.158,646.714l0,54.433c0,15.021 -12.195,27.217 -27.217,27.217l-195.923,0c-15.021,0 -27.217,-12.195 -27.217,-27.217l0,-54.433c0,-15.021 12.195,-27.217 27.217,-27.217l195.923,0c15.021,0 27.217,12.195 27.217,27.217Z" style="fill:#fff;"/><path d="M670.935,728.365l-61.927,-0.005c-17.089,-0.001 -30.963,-13.877 -30.961,-30.966l0.011,-147.761c0.001,-17.089 13.877,-30.962 30.966,-30.961l61.927,0.005c17.089,0.001 30.963,13.877 30.961,30.966l-0.011,147.761c-0.001,17.089 -13.877,30.962 -30.966,30.961Z" style="fill:#fff;"/><path d="M1075.535,646.714l0,54.433c0,15.021 -12.195,27.217 -27.217,27.217l-195.923,0c-15.021,0 -27.217,-12.195 -27.217,-27.217l0,-54.433c0,-15.021 12.195,-27.217 27.217,-27.217l195.923,0c15.021,0 27.217,12.195 27.217,27.217Z" style="fill:#fff;"/><path d="M981.312,728.365l-61.927,-0.005c-17.089,-0.001 -30.963,-13.877 -30.961,-30.966l0.011,-147.761c0.001,-17.089 13.877,-30.962 30.966,-30.961l61.927,0.005c17.089,0.001 30.963,13.877 30.961,30.966l-0.011,147.761c-0.001,17.089 -13.877,30.962 -30.966,30.961Z" style="fill:#fff;"/></g><g><path d="M205.686,855.271l-0.096,-54.433c-0.026,-15.021 12.147,-27.24 27.169,-27.268l55.098,-0.105c15.021,-0.029 27.238,12.144 27.265,27.165l0.096,54.433c0.026,15.021 -12.147,27.24 -27.169,27.268l-55.098,0.105c-15.021,0.029 -27.238,-12.144 -27.265,-27.165Z" style="fill:#fff;"/><path d="M936.619,853.881l-0.096,-54.433c-0.026,-15.021 12.147,-27.24 27.169,-27.268l195.923,-0.373c15.021,-0.029 27.238,12.144 27.265,27.165l0.096,54.433c0.026,15.021 -12.147,27.24 -27.169,27.268l-195.923,0.373c-15.021,0.029 -27.238,-12.144 -27.265,-27.165Z" style="fill:#fff;"/><path d="M625.593,854.472l-0.096,-54.433c-0.026,-15.021 12.147,-27.24 27.169,-27.268l195.923,-0.373c15.021,-0.029 27.238,12.144 27.265,27.165l0.096,54.433c0.026,15.021 -12.147,27.24 -27.169,27.268l-195.923,0.373c-15.021,0.029 -27.238,-12.144 -27.265,-27.165Z" style="fill:#fff;"/><path d="M719.672,772.643l61.927,-0.113c17.089,-0.031 30.987,13.818 31.016,30.907l0.249,147.76c0.029,17.089 -13.822,30.989 -30.911,31.02l-61.927,0.113c-17.089,0.031 -30.987,-13.818 -31.016,-30.907l-0.249,-147.76c-0.029,-17.089 13.822,-30.989 30.911,-31.02Z" style="fill:#fff;"/><path d="M315.217,855.062l-0.096,-54.433c-0.026,-15.021 12.147,-27.24 27.169,-27.268l195.923,-0.373c15.021,-0.029 27.238,12.144 27.265,27.165l0.096,54.433c0.026,15.021 -12.147,27.24 -27.169,27.268l-195.923,0.373c-15.021,0.029 -27.238,-12.144 -27.265,-27.165Z" style="fill:#fff;"/><path d="M409.296,773.233l61.927,-0.113c17.089,-0.031 30.987,13.818 31.016,30.907l0.249,147.76c0.029,17.089 -13.822,30.989 -30.911,31.02l-61.927,0.113c-17.089,0.031 -30.987,-13.818 -31.016,-30.907l-0.249,-147.76c-0.029,-17.089 13.822,-30.989 30.911,-31.02Z" style="fill:#fff;"/></g></g></g></svg>