<svg width="14" height="18" viewBox="0 0 14 18" fill="none" xmlns="http://www.w3.org/2000/svg">
<path d="M7.79 13.95C10.82 13.56 13 10.84 13 7.79V1.25C13 0.918479 12.8683 0.600537 12.6339 0.366117C12.3995 0.131696 12.0815 0 11.75 0C11.4185 0 11.1005 0.131696 10.8661 0.366117C10.6317 0.600537 10.5 0.918479 10.5 1.25V7.9C10.5 9.57 9.37 11.09 7.73 11.42C7.22001 11.5299 6.69189 11.5242 6.1844 11.4033C5.67691 11.2824 5.20292 11.0494 4.79724 10.7214C4.39156 10.3934 4.06448 9.97876 3.84 9.50783C3.61552 9.03691 3.49934 8.52169 3.5 8V1.25C3.5 0.918479 3.3683 0.600537 3.13388 0.366117C2.89946 0.131696 2.58152 0 2.25 0C1.91848 0 1.60054 0.131696 1.36612 0.366117C1.1317 0.600537 1 0.918479 1 1.25V8C1 11.57 4.13 14.42 7.79 13.95ZM0 17C0 17.55 0.45 18 1 18H13C13.55 18 14 17.55 14 17C14 16.45 13.55 16 13 16H1C0.45 16 0 16.45 0 17Z" fill="#584738"/>
</svg>
