<svg width="24" height="24" viewBox="0 0 24 24" fill="none" xmlns="http://www.w3.org/2000/svg">
<path d="M12.222 5.97702C13.6436 5.95296 15.0173 6.49051 16.045 7.47302L18.913 4.60502C17.1036 2.9039 14.7053 1.97019 12.222 2.00002C10.368 1.99971 8.5504 2.51482 6.97223 3.48782C5.39406 4.46083 4.11745 5.8534 3.285 7.51002L6.626 10.1C7.01024 8.91377 7.75685 7.87791 8.76073 7.13828C9.7646 6.39865 10.9752 5.9925 12.222 5.97702Z" fill="#584738"/>
<path d="M3.28499 7.51001C2.58567 8.90343 2.2215 10.4409 2.2215 12C2.2215 13.5591 2.58567 15.0966 3.28499 16.49L6.62599 13.9C6.20692 12.668 6.20692 11.332 6.62599 10.1L3.28499 7.51001Z" fill="#B59E7D"/>
<path d="M15.608 17.068C14.8349 17.5643 13.9586 17.8775 13.046 17.9836C12.1335 18.0898 11.2087 17.9861 10.3423 17.6805C9.4759 17.3749 8.69072 16.8755 8.04668 16.2203C7.40263 15.5651 6.91672 14.7715 6.62601 13.9L3.28601 16.49C4.11831 18.1463 5.3946 19.5387 6.97238 20.5117C8.55017 21.4847 10.3673 22 12.221 22C14.6552 22.0656 17.0226 21.1989 18.839 19.577L15.608 17.068Z" fill="#AAA396"/>
<path d="M21.64 10.182H12.222V14.05H17.604C17.4926 14.6619 17.2583 15.2448 16.9152 15.7635C16.5721 16.2822 16.1274 16.726 15.608 17.068L18.84 19.578C19.8243 18.6302 20.5985 17.4862 21.1122 16.22C21.6259 14.9537 21.8677 13.5937 21.822 12.228C21.822 11.54 21.7613 10.858 21.64 10.182Z" fill="#CEC1A8"/>
</svg>
