<?xml version="1.0" encoding="UTF-8" standalone="no"?><!DOCTYPE svg PUBLIC "-//W3C//DTD SVG 1.1//EN" "http://www.w3.org/Graphics/SVG/1.1/DTD/svg11.dtd"><svg width="100%" height="100%" viewBox="0 0 5000 5000" version="1.1" xmlns="http://www.w3.org/2000/svg" xmlns:xlink="http://www.w3.org/1999/xlink" xml:space="preserve" xmlns:serif="http://www.serif.com/" style="fill-rule:evenodd;clip-rule:evenodd;stroke-linejoin:round;stroke-miterlimit:2;"><path id="first" d="M1505.817,2109.295l0,781.41c0,199.993 -162.369,362.362 -362.362,362.362l-724.725,0c-199.993,0 -362.362,-162.369 -362.362,-362.362l0,-781.41c0,-199.993 162.369,-362.362 362.362,-362.362l724.725,0c199.993,0 362.362,162.369 362.362,362.362Z" style="fill:#584738;"/><clipPath id="_clip1"><path d="M1505.817,2109.295l0,781.41c0,199.993 -162.369,362.362 -362.362,362.362l-724.725,0c-199.993,0 -362.362,-162.369 -362.362,-362.362l0,-781.41c0,-199.993 162.369,-362.362 362.362,-362.362l724.725,0c199.993,0 362.362,162.369 362.362,362.362Z"/></clipPath><g clip-path="url(#_clip1)"><g><g><path d="M531.592,2134.871l0,54.433c0,15.021 -12.195,27.217 -27.217,27.217l-59.861,0c-15.021,0 -27.217,-12.195 -27.217,-27.217l0,-54.433c0,-15.021 12.195,-27.217 27.217,-27.217l59.861,0c15.021,0 27.217,12.195 27.217,27.217Z" style="fill:#fff;"/><path d="M693.508,2134.871l0,54.433c0,15.021 -12.195,27.217 -27.217,27.217l-59.861,0c-15.021,0 -27.217,-12.195 -27.217,-27.217l0,-54.433c0,-15.021 12.195,-27.217 27.217,-27.217l59.861,0c15.021,0 27.217,12.195 27.217,27.217Z" style="fill:#fff;"/><path d="M369.675,2134.871l0,54.433c0,15.021 -12.195,27.217 -27.217,27.217l-55.098,0c-15.021,0 -27.217,-12.195 -27.217,-27.217l0,-54.433c0,-15.021 12.195,-27.217 27.217,-27.217l55.098,0c15.021,0 27.217,12.195 27.217,27.217Z" style="fill:#fff;"/><path d="M1230.622,2134.871l0,54.433c0,15.021 -12.195,27.217 -27.217,27.217l-55.098,0c-15.021,0 -27.217,-12.195 -27.217,-27.217l0,-54.433c0,-15.021 12.195,-27.217 27.217,-27.217l55.098,0c15.021,0 27.217,12.195 27.217,27.217Z" style="fill:#fff;"/><path d="M991.488,2134.871l0,54.433c0,15.021 -12.195,27.217 -27.217,27.217l-195.923,0c-15.021,0 -27.217,-12.195 -27.217,-27.217l0,-54.433c0,-15.021 12.195,-27.217 27.217,-27.217l195.923,0c15.021,0 27.217,12.195 27.217,27.217Z" style="fill:#fff;"/><path d="M1301.034,1971.571l0,54.433c0,15.021 -12.195,27.217 -27.217,27.217l-195.923,0c-15.021,0 -27.217,-12.195 -27.217,-27.217l0,-54.433c0,-15.021 12.195,-27.217 27.217,-27.217l195.923,0c15.021,0 27.217,12.195 27.217,27.217Z" style="fill:#fff;"/></g><g><path d="M1030.09,2865.129l0,-54.433c0,-15.021 12.195,-27.217 27.217,-27.217l59.861,0c15.021,0 27.217,12.195 27.217,27.217l-0,54.433c0,15.021 -12.195,27.217 -27.217,27.217l-59.861,0c-15.021,0 -27.217,-12.195 -27.217,-27.217Z" style="fill:#fff;"/><path d="M868.173,2865.129l0,-54.433c0,-15.021 12.195,-27.217 27.217,-27.217l59.861,0c15.021,0 27.217,12.195 27.217,27.217l-0,54.433c0,15.021 -12.195,27.217 -27.217,27.217l-59.861,0c-15.021,0 -27.217,-12.195 -27.217,-27.217Z" style="fill:#fff;"/><path d="M1192.006,2865.129l0,-54.433c0,-15.021 12.195,-27.217 27.217,-27.217l55.098,0c15.021,0 27.217,12.195 27.217,27.217l0,54.433c0,15.021 -12.195,27.217 -27.217,27.217l-55.098,0c-15.021,0 -27.217,-12.195 -27.217,-27.217Z" style="fill:#fff;"/><path d="M331.06,2865.129l0,-54.433c0,-15.021 12.195,-27.217 27.217,-27.217l55.098,0c15.021,0 27.217,12.195 27.217,27.217l0,54.433c0,15.021 -12.195,27.217 -27.217,27.217l-55.098,0c-15.021,0 -27.217,-12.195 -27.217,-27.217Z" style="fill:#fff;"/><path d="M570.194,2865.129l0,-54.433c0,-15.021 12.195,-27.217 27.217,-27.217l195.923,0c15.021,0 27.217,12.195 27.217,27.217l0,54.433c0,15.021 -12.195,27.217 -27.217,27.217l-195.923,0c-15.021,0 -27.217,-12.195 -27.217,-27.217Z" style="fill:#fff;"/><path d="M260.647,3028.429l0,-54.433c0,-15.021 12.195,-27.217 27.217,-27.217l195.923,0c15.021,0 27.217,12.195 27.217,27.217l0,54.433c0,15.021 -12.195,27.217 -27.217,27.217l-195.923,0c-15.021,0 -27.217,-12.195 -27.217,-27.217Z" style="fill:#fff;"/></g><g><path d="M1241.435,2393.647l0,54.433c0,15.021 -12.195,27.217 -27.217,27.217l-55.098,0c-15.021,0 -27.217,-12.195 -27.217,-27.217l0,-54.433c0,-15.021 12.195,-27.217 27.217,-27.217l55.098,0c15.021,0 27.217,12.195 27.217,27.217Z" style="fill:#fff;"/><path d="M510.5,2393.647l0,54.433c0,15.021 -12.195,27.217 -27.217,27.217l-195.923,0c-15.021,0 -27.217,-12.195 -27.217,-27.217l0,-54.433c0,-15.021 12.195,-27.217 27.217,-27.217l195.923,0c15.021,0 27.217,12.195 27.217,27.217Z" style="fill:#fff;"/><path d="M821.526,2393.647l0,54.433c0,15.021 -12.195,27.217 -27.217,27.217l-195.923,0c-15.021,0 -27.217,-12.195 -27.217,-27.217l0,-54.433c0,-15.021 12.195,-27.217 27.217,-27.217l195.923,0c15.021,0 27.217,12.195 27.217,27.217Z" style="fill:#fff;"/><path d="M727.304,2475.297l-61.927,-0.005c-17.089,-0.001 -30.963,-13.877 -30.961,-30.966l0.011,-147.761c0.001,-17.089 13.877,-30.962 30.966,-30.961l61.927,0.005c17.089,0.001 30.963,13.877 30.961,30.966l-0.011,147.761c-0.001,17.089 -13.877,30.962 -30.966,30.961Z" style="fill:#fff;"/><path d="M1131.903,2393.647l0,54.433c0,15.021 -12.195,27.217 -27.217,27.217l-195.923,0c-15.021,0 -27.217,-12.195 -27.217,-27.217l0,-54.433c0,-15.021 12.195,-27.217 27.217,-27.217l195.923,0c15.021,0 27.217,12.195 27.217,27.217Z" style="fill:#fff;"/><path d="M1037.68,2475.297l-61.927,-0.005c-17.089,-0.001 -30.963,-13.877 -30.961,-30.966l0.011,-147.761c0.001,-17.089 13.877,-30.962 30.966,-30.961l61.927,0.005c17.089,0.001 30.963,13.877 30.961,30.966l-0.011,147.761c-0.001,17.089 -13.877,30.962 -30.966,30.961Z" style="fill:#fff;"/></g><g><path d="M262.054,2602.203l-0.096,-54.433c-0.026,-15.021 12.147,-27.24 27.169,-27.268l55.098,-0.105c15.021,-0.029 27.238,12.144 27.265,27.165l0.096,54.433c0.026,15.021 -12.147,27.24 -27.169,27.268l-55.098,0.105c-15.021,0.029 -27.238,-12.144 -27.265,-27.165Z" style="fill:#fff;"/><path d="M992.987,2600.813l-0.096,-54.433c-0.026,-15.021 12.147,-27.24 27.169,-27.268l195.923,-0.373c15.021,-0.029 27.238,12.144 27.265,27.165l0.096,54.433c0.026,15.021 -12.147,27.24 -27.169,27.268l-195.923,0.373c-15.021,0.029 -27.238,-12.144 -27.265,-27.165Z" style="fill:#fff;"/><path d="M681.962,2601.405l-0.096,-54.433c-0.026,-15.021 12.147,-27.24 27.169,-27.268l195.923,-0.373c15.021,-0.029 27.238,12.144 27.265,27.165l0.096,54.433c0.026,15.021 -12.147,27.24 -27.169,27.268l-195.923,0.373c-15.021,0.029 -27.238,-12.144 -27.265,-27.165Z" style="fill:#fff;"/><path d="M776.04,2519.576l61.927,-0.113c17.089,-0.031 30.987,13.818 31.016,30.907l0.249,147.76c0.029,17.089 -13.822,30.989 -30.911,31.02l-61.927,0.113c-17.089,0.031 -30.987,-13.818 -31.016,-30.907l-0.249,-147.76c-0.029,-17.089 13.822,-30.989 30.911,-31.02Z" style="fill:#fff;"/><path d="M371.585,2601.995l-0.096,-54.433c-0.026,-15.021 12.147,-27.24 27.169,-27.268l195.923,-0.373c15.021,-0.029 27.238,12.144 27.265,27.165l0.096,54.433c0.026,15.021 -12.147,27.24 -27.169,27.268l-195.923,0.373c-15.021,0.029 -27.238,-12.144 -27.265,-27.165Z" style="fill:#fff;"/><path d="M465.664,2520.166l61.927,-0.113c17.089,-0.031 30.987,13.818 31.016,30.907l0.249,147.76c0.029,17.089 -13.822,30.989 -30.911,31.02l-61.927,0.113c-17.089,0.031 -30.987,-13.818 -31.016,-30.907l-0.249,-147.76c-0.029,-17.089 13.822,-30.989 30.911,-31.02Z" style="fill:#fff;"/></g></g></g><g transform="matrix(0.962363,0,0,1,-34.08414,0)"><g transform="matrix(627.556177,0,0,627.556177,5176.982953,2500)"></g><text x="1799.885px" y="2500px" style="font-family:'Gadugi-Bold', 'Gadugi', sans-serif;font-weight:700;font-size:627.556px;fill:#584738;">ARPHAT<tspan x="4326.044px " y="2500px ">R</tspan>A</text></g><g transform="matrix(0.962363,0,0,1,-21.514889,0)"><g transform="matrix(627.556177,0,0,627.556177,4770.014197,2949.750558)"></g><text x="2133.849px" y="2949.751px" style="font-family:'CourierNewPS-BoldMT', 'Courier New', monospace;font-weight:700;font-size:627.556px;fill:#b59e7d;">F O R M</text></g></svg>