<svg width="13" height="16" viewBox="0 0 13 16" fill="none" xmlns="http://www.w3.org/2000/svg">
<path d="M1.625 16C1.17813 16 0.795708 15.8435 0.47775 15.5304C0.159792 15.2173 0.000541667 14.8405 0 14.4V1.6C0 1.16 0.15925 0.783467 0.47775 0.4704C0.79625 0.157333 1.17867 0.000533333 1.625 0H7.45469C7.67135 0 7.878 0.0400001 8.07463 0.12C8.27125 0.2 8.44377 0.313333 8.59219 0.46L12.5328 4.34C12.6818 4.48667 12.7969 4.6568 12.8781 4.8504C12.9594 5.044 13 5.2472 13 5.46V14.4C13 14.84 12.841 15.2168 12.5231 15.5304C12.2051 15.844 11.8224 16.0005 11.375 16H1.625ZM7.3125 4.8C7.3125 5.02667 7.3905 5.2168 7.5465 5.3704C7.7025 5.524 7.89533 5.60053 8.125 5.6H11.375L7.3125 1.6V4.8ZM5.48438 13.6C5.99896 13.6 6.43229 13.4267 6.78438 13.08C7.13646 12.7333 7.3125 12.3067 7.3125 11.8V8.8H8.9375C9.16771 8.8 9.36081 8.7232 9.51681 8.5696C9.67281 8.416 9.75054 8.22613 9.75 8C9.74946 7.77387 9.67146 7.584 9.516 7.4304C9.36054 7.2768 9.16771 7.2 8.9375 7.2H7.3125C7.08229 7.2 6.88946 7.2768 6.734 7.4304C6.57854 7.584 6.50054 7.77387 6.5 8V10.3C6.35104 10.1933 6.19206 10.1165 6.02306 10.0696C5.85406 10.0227 5.6745 9.99947 5.48438 10C4.96979 10 4.53646 10.1733 4.18437 10.52C3.83229 10.8667 3.65625 11.2933 3.65625 11.8C3.65625 12.3067 3.83229 12.7333 4.18437 13.08C4.53646 13.4267 4.96979 13.6 5.48438 13.6Z" fill="#584738"/>
</svg>
