<svg width="17" height="17" viewBox="0 0 17 17" fill="none" xmlns="http://www.w3.org/2000/svg">
<path fill-rule="evenodd" clip-rule="evenodd" d="M1.21429 0C0.892237 0 0.583379 0.127934 0.355656 0.355656C0.127934 0.583379 0 0.892237 0 1.21429V15.7857C0 16.1078 0.127934 16.4166 0.355656 16.6443C0.583379 16.8721 0.892237 17 1.21429 17H15.7857C16.1078 17 16.4166 16.8721 16.6443 16.6443C16.8721 16.4166 17 16.1078 17 15.7857V1.21429C17 0.892237 16.8721 0.583379 16.6443 0.355656C16.4166 0.127934 16.1078 0 15.7857 0H1.21429ZM5.46429 7.28571C5.94736 7.28571 6.41065 7.09381 6.75223 6.75223C7.09381 6.41065 7.28571 5.94736 7.28571 5.46429C7.28571 4.98121 7.09381 4.51793 6.75223 4.17634C6.41065 3.83476 5.94736 3.64286 5.46429 3.64286C4.98121 3.64286 4.51793 3.83476 4.17634 4.17634C3.83476 4.51793 3.64286 4.98121 3.64286 5.46429C3.64286 5.94736 3.83476 6.41065 4.17634 6.75223C4.51793 7.09381 4.98121 7.28571 5.46429 7.28571ZM3.009 13.0354L4.94943 9.93043C5.00401 9.84311 5.0799 9.7711 5.16996 9.72118C5.26003 9.67126 5.36131 9.64507 5.46429 9.64507C5.56726 9.64507 5.66854 9.67126 5.75861 9.72118C5.84868 9.7711 5.92457 9.84311 5.97914 9.93043L7.56379 12.4659L10.1016 8.17093C10.1553 8.08005 10.2318 8.00474 10.3234 7.95242C10.4151 7.9001 10.5188 7.87258 10.6244 7.87258C10.7299 7.87258 10.8337 7.9001 10.9253 7.95242C11.017 8.00474 11.0935 8.08005 11.1471 8.17093L14.0299 13.0487C14.0842 13.1409 14.1132 13.2457 14.114 13.3527C14.1148 13.4597 14.0873 13.565 14.0343 13.6579C13.9813 13.7509 13.9047 13.8281 13.8122 13.8819C13.7197 13.9357 13.6147 13.9641 13.5077 13.9643H7.74229C7.68516 13.9642 7.62834 13.956 7.5735 13.94C7.51827 13.9561 7.46103 13.9643 7.4035 13.9643H3.52507C3.41669 13.9643 3.31029 13.9353 3.21691 13.8803C3.12353 13.8253 3.04658 13.7463 2.99404 13.6515C2.9415 13.5567 2.91529 13.4495 2.91814 13.3412C2.92098 13.2329 2.95156 13.1273 3.009 13.0354Z" fill="#584738"/>
</svg>
